# xmcd CD database file
# Copyright (C) 1997 Ti Kan
#
# Track frame offsets:
#  150
#  11996
#  26136
#  39183
#  64306
#
# Disc length: 984 seconds
#
# Revision: 1
# Processed by: cddbd v1.4b41PL1 Copyright (c) Steve Scherf et al.
# Submitted via: CDWizzard Release:4.32
#
DISCID=3d03d605
DTITLE=Klondike - Chocolate Tee - Klondike vs. Chocolate Tee EP
DYEAR=1900
DGENRE=
TTITLE0=20 Below - Klondike
TTITLE1=Finsta' Flow - Chocolate Tee
TTITLE2=Homicide - Chocolate Tee
TTITLE3=Back to the Iggity' - Klondike w/DJ. Snowy C
TTITLE4=Bonus Tracks - The Executioner
EXTD=
EXTT0=
EXTT1=
EXTT2=
EXTT3=
EXTT4=
PLAYORDER=
